<?xml version="1.0" standalone="no"?>
<!DOCTYPE svg PUBLIC "-//W3C//DTD SVG 20010904//EN"
 "http://www.w3.org/TR/2001/REC-SVG-20010904/DTD/svg10.dtd">
<svg version="1.0" xmlns="http://www.w3.org/2000/svg"
 width="500.000000pt" height="500.000000pt" viewBox="0 0 500.000000 500.000000"
 preserveAspectRatio="xMidYMid meet">

<g transform="translate(0.000000,500.000000) scale(0.100000,-0.100000)"
fill="#000000" stroke="none">
<path d="M2473 3801 c-21 -50 -42 -61 -109 -61 -34 0 -30 -14 16 -50 26 -21
39 -38 36 -49 -2 -9 -8 -35 -11 -59 l-7 -43 51 28 50 28 52 -29 51 -28 -7 43
c-3 24 -9 51 -11 60 -3 11 10 28 36 49 46 36 50 50 16 50 -67 0 -88 11 -109
61 -11 27 -23 49 -27 49 -4 0 -16 -22 -27 -49z"/>
<path d="M2108 3797 c-30 -14 -68 -46 -68 -59 0 -27 79 3 119 46 l24 26 -24
-1 c-13 0 -36 -6 -51 -12z"/>
<path d="M2831 3784 c40 -43 119 -73 119 -45 0 26 -77 71 -121 71 l-22 0 24
-26z"/>
<path d="M1998 3775 c-68 -45 -89 -99 -43 -111 31 -8 99 2 129 18 20 11 20 11
1 19 -11 4 -33 8 -48 8 -24 1 -26 3 -17 20 18 35 30 71 22 70 -4 0 -23 -11
-44 -24z"/>
<path d="M2951 3773 c6 -16 18 -36 26 -45 15 -17 14 -18 -18 -19 -19 0 -43 -4
-54 -9 -18 -7 -18 -9 10 -20 72 -28 145 -24 145 8 0 26 -27 60 -71 87 -49 31
-51 31 -38 -2z"/>
<path d="M1868 3699 c-60 -57 -69 -85 -32 -99 30 -12 67 -6 127 18 47 18 33
32 -31 32 l-43 0 16 31 c30 58 14 66 -37 18z"/>
<path d="M3070 3725 c0 -9 7 -29 15 -45 l16 -30 -43 0 c-65 0 -77 -14 -31 -33
93 -37 161 -30 147 16 -7 24 -59 83 -86 98 -14 7 -18 6 -18 -6z"/>
<path d="M2129 3670 c-11 -35 -17 -41 -58 -53 l-46 -13 38 -23 c34 -21 37 -27
37 -67 0 -24 3 -44 8 -44 4 1 20 12 36 25 28 22 32 23 64 9 19 -8 37 -12 40
-10 2 3 -1 21 -8 40 -10 32 -9 39 15 71 l27 35 -45 0 c-41 0 -47 3 -67 35 -12
19 -23 35 -25 35 -2 0 -10 -18 -16 -40z"/>
<path d="M2831 3677 c-21 -34 -26 -37 -68 -37 l-45 0 27 -35 c24 -32 25 -39
15 -71 -7 -19 -10 -37 -8 -40 3 -2 21 2 40 10 32 14 36 13 64 -9 16 -13 32
-24 37 -25 4 0 7 20 7 44 0 40 3 46 37 67 l38 23 -48 14 c-26 7 -47 19 -47 25
-1 7 -7 25 -13 41 l-13 30 -23 -37z"/>
<path d="M1758 3633 c-39 -41 -61 -84 -52 -107 8 -20 92 -13 141 13 67 34 65
45 -5 38 -34 -3 -60 -2 -57 2 9 16 23 91 16 91 -4 0 -23 -17 -43 -37z"/>
<path d="M3192 3639 c3 -19 8 -41 12 -50 6 -13 -2 -15 -55 -11 -71 5 -73 -6
-6 -39 53 -28 136 -34 144 -12 9 22 -31 92 -69 122 l-31 25 5 -35z"/>
<path d="M1658 3563 c-36 -39 -60 -90 -56 -121 3 -24 6 -27 38 -24 45 5 124
38 146 63 17 18 16 19 -19 19 -20 0 -47 -4 -61 -10 l-26 -10 6 55 c4 30 5 55
2 55 -2 0 -16 -12 -30 -27z"/>
<path d="M3300 3562 c0 -17 5 -43 10 -57 9 -24 8 -26 -7 -20 -10 4 -40 10 -68
13 -45 4 -49 3 -37 -11 23 -27 114 -67 154 -67 36 0 38 1 38 33 0 33 -36 95
-73 126 -15 12 -17 10 -17 -17z"/>
<path d="M2447 3486 c-42 -15 -62 -31 -115 -88 -19 -21 -50 -48 -70 -60 -36
-22 -45 -23 -372 -28 -298 -4 -339 -7 -363 -22 -14 -10 -29 -18 -32 -18 -3 0
-5 19 -5 43 0 71 -15 77 -44 19 -38 -76 -33 -176 7 -144 7 5 25 12 41 16 17 4
42 16 58 27 l28 20 0 -533 0 -534 25 -50 c59 -119 217 -268 438 -415 133 -88
310 -181 394 -205 76 -22 127 -10 284 69 301 151 590 386 677 550 l27 52 3
523 c1 287 4 522 6 522 2 0 17 -7 32 -15 16 -8 37 -15 46 -15 9 0 20 -4 23
-10 11 -17 25 -11 36 16 11 31 -9 113 -37 153 -17 23 -18 23 -25 5 -4 -10 -8
-36 -8 -56 -1 -21 -3 -38 -5 -38 -15 0 -77 45 -67 48 6 2 19 -2 27 -9 19 -15
34 2 34 39 0 27 -42 113 -64 131 -14 12 -16 7 -16 -42 l0 -55 -37 14 c-21 7
-51 13 -67 14 -25 0 -27 -2 -15 -17 8 -9 34 -29 59 -45 l45 -29 -275 4 c-317
4 -340 8 -434 84 -32 27 -68 56 -80 66 -29 24 -112 31 -159 13z m174 -262 c86
-76 94 -78 359 -84 l235 -5 3 -262 2 -263 -330 0 -330 0 0 330 c0 182 2 330 5
330 2 0 28 -21 56 -46z m-530 -194 c17 -10 19 -22 19 -145 0 -123 -1 -134 -17
-129 -15 5 -16 4 -3 -5 32 -23 35 -12 32 127 l-3 138 26 12 c14 7 41 12 60 12
44 0 126 -21 143 -37 17 -16 17 -293 0 -293 -6 0 -37 7 -69 16 -51 14 -62 15
-108 1 -45 -13 -57 -13 -100 0 -43 12 -56 12 -109 -2 -33 -8 -65 -15 -71 -15
-8 0 -10 45 -9 148 l2 147 3 -132 4 -133 27 1 c23 2 24 2 5 6 -22 4 -23 7 -23
137 l0 132 43 11 c57 14 124 15 148 3z m369 -915 c0 -301 -3 -385 -12 -385
-25 0 -229 109 -316 169 -178 122 -298 241 -337 334 -10 25 -15 71 -15 152 l0
115 340 0 340 0 0 -385z m595 264 c20 -18 35 -40 35 -53 -1 -13 -59 -83 -161
-191 -147 -157 -164 -172 -221 -193 -33 -13 -65 -19 -69 -15 -5 5 -1 36 9 70
16 58 27 73 181 237 89 97 169 176 177 176 7 0 29 -14 49 -31z"/>
<path d="M2790 3049 c-96 -55 -119 -184 -48 -265 42 -47 77 -64 138 -64 59 0
97 17 134 60 71 85 52 203 -43 267 -45 30 -131 31 -181 2z m80 -24 c0 -31 -3
-35 -25 -35 -14 0 -25 5 -25 12 0 10 38 58 47 58 2 0 3 -16 3 -35z m70 -26 c0
-5 -11 -9 -25 -9 -22 0 -25 4 -25 38 l1 37 24 -28 c14 -15 25 -32 25 -38z
m-126 26 c-17 -26 -29 -31 -39 -16 -5 9 31 41 47 41 5 0 1 -11 -8 -25z m154 9
c12 -8 20 -20 17 -25 -11 -17 -32 -9 -43 16 -13 29 -6 32 26 9z m-189 -44 c14
-7 17 -17 12 -47 -6 -35 -9 -38 -44 -41 -37 -3 -38 -2 -31 25 7 29 31 73 40
73 3 0 13 -4 23 -10z m246 -20 c8 -16 15 -38 15 -50 0 -16 -6 -20 -35 -20 -30
0 -35 3 -35 23 0 12 -3 32 -6 44 -6 20 2 26 38 32 4 0 14 -12 23 -29z m-155
-30 c0 -39 -1 -40 -35 -40 -37 0 -42 9 -29 58 5 16 14 22 35 22 27 0 29 -3 29
-40z m84 18 c13 -49 8 -58 -29 -58 -34 0 -35 1 -35 40 0 37 2 40 29 40 21 0
30 -6 35 -22z m-163 -111 c5 -31 3 -40 -14 -48 -24 -13 -43 3 -56 48 -11 38
-6 45 34 41 26 -3 31 -8 36 -41z m79 3 c0 -37 -2 -40 -29 -40 -21 0 -30 6 -35
23 -13 48 -8 57 29 57 34 0 35 -1 35 -40z m90 23 c0 -45 -12 -63 -41 -63 -27
0 -29 3 -29 40 0 39 1 40 35 40 27 0 35 -4 35 -17z m77 -20 c-8 -46 -25 -64
-55 -56 -18 4 -22 11 -18 27 3 11 6 31 6 44 0 19 5 22 36 22 37 0 37 0 31 -37z
m-167 -90 l0 -36 -25 23 c-14 13 -25 29 -25 37 0 7 11 13 25 13 22 0 25 -4 25
-37z m70 28 c0 -6 -11 -23 -25 -38 l-24 -28 -1 38 c0 33 3 37 25 37 14 0 25
-4 25 -9z m-123 -26 c6 -14 8 -25 4 -25 -15 0 -51 32 -46 41 11 17 30 9 42
-16z m168 16 c5 -9 -31 -41 -47 -41 -4 0 -2 11 4 25 11 25 32 33 43 16z"/>
<path d="M2038 2763 c6 -2 18 -2 25 0 6 3 1 5 -13 5 -14 0 -19 -2 -12 -5z"/>
<path d="M2178 2763 c6 -2 18 -2 25 0 6 3 1 5 -13 5 -14 0 -19 -2 -12 -5z"/>
<path d="M2268 2753 c7 -3 16 -2 19 1 4 3 -2 6 -13 5 -11 0 -14 -3 -6 -6z"/>
<path d="M2308 2743 c6 -2 18 -2 25 0 6 3 1 5 -13 5 -14 0 -19 -2 -12 -5z"/>
<path d="M2130 2425 c0 -14 5 -25 10 -25 6 0 10 11 10 25 0 14 -4 25 -10 25
-5 0 -10 -11 -10 -25z"/>
<path d="M2020 2424 c0 -3 5 -14 10 -25 16 -28 32 -23 18 6 -10 22 -28 35 -28
19z"/>
<path d="M2227 2407 c-9 -15 -13 -28 -7 -32 11 -6 33 31 28 47 -2 6 -12 -1
-21 -15z"/>
<path d="M2057 2351 c-83 -55 -94 -151 -27 -236 21 -26 30 -49 30 -74 0 -50
14 -61 76 -61 61 0 84 21 84 76 0 20 10 44 25 62 29 34 45 73 45 108 0 39 -38
103 -73 124 -42 26 -122 27 -160 1z m158 -23 c30 -23 55 -74 55 -111 0 -13
-17 -50 -37 -81 l-37 -56 -56 0 c-52 0 -57 3 -89 41 -58 70 -60 140 -5 194 31
31 40 35 88 35 40 0 60 -6 81 -22z m-25 -278 c0 -5 -25 -10 -55 -10 -30 0 -55
5 -55 10 0 6 25 10 55 10 30 0 55 -4 55 -10z m0 -40 c0 -5 -22 -10 -49 -10
-28 0 -53 5 -56 10 -4 6 15 10 49 10 31 0 56 -4 56 -10z"/>
<path d="M1940 2342 c0 -11 41 -34 48 -27 4 4 -2 13 -12 21 -22 15 -36 18 -36
6z"/>
<path d="M2296 2335 c-11 -8 -17 -17 -14 -21 8 -8 48 14 48 26 0 14 -12 12
-34 -5z"/>
<path d="M1910 2230 c0 -5 14 -10 30 -10 17 0 30 5 30 10 0 6 -13 10 -30 10
-16 0 -30 -4 -30 -10z"/>
<path d="M2300 2230 c0 -5 14 -10 30 -10 17 0 30 5 30 10 0 6 -13 10 -30 10
-16 0 -30 -4 -30 -10z"/>
<path d="M2987 2372 c-14 -16 -13 -19 22 -49 29 -24 41 -29 50 -20 17 17 13
31 -17 60 -33 32 -34 32 -55 9z"/>
<path d="M2837 2215 c-65 -69 -115 -131 -111 -136 7 -12 10 -10 148 140 90 99
107 121 88 121 -4 0 -61 -56 -125 -125z"/>
<path d="M2900 2218 c-122 -131 -155 -171 -139 -167 15 4 231 231 237 250 9
25 -21 0 -98 -83z"/>
<path d="M2896 2155 c-65 -69 -116 -129 -112 -132 3 -4 44 34 89 83 132 141
160 174 150 174 -5 0 -62 -56 -127 -125z"/>
<path d="M2697 2063 c-8 -12 60 -79 70 -69 4 3 -9 23 -29 42 -19 20 -38 32
-41 27z"/>
<path d="M2677 2023 c-10 -17 -18 -73 -10 -72 4 0 23 6 41 12 l33 12 -29 29
c-17 15 -32 24 -35 19z"/>
<path d="M1543 3446 c-18 -26 -35 -61 -38 -76 -8 -36 12 -77 28 -61 6 6 23 11
37 11 27 0 105 44 129 73 12 15 10 17 -15 17 -16 -1 -46 -7 -66 -14 l-37 -13
-3 56 -3 56 -32 -49z"/>
<path d="M1363 3214 c-21 -48 -23 -135 -4 -158 12 -14 16 -15 30 -2 9 8 32 21
52 29 19 8 54 36 77 63 36 43 39 49 23 52 -20 3 -95 -31 -106 -48 -13 -21 -23
-8 -28 36 -7 66 -23 76 -44 28z"/>
<path d="M3596 3240 c-4 -8 -10 -35 -14 -58 l-7 -44 -25 20 c-31 24 -97 48
-106 39 -12 -12 64 -94 103 -112 21 -10 45 -24 54 -32 15 -13 19 -12 33 9 26
36 16 127 -18 173 -12 17 -16 17 -20 5z"/>
<path d="M1291 3066 c-15 -61 -14 -101 4 -136 16 -31 38 -39 52 -17 4 7 27 24
50 39 40 26 102 112 90 125 -10 9 -68 -19 -104 -50 -25 -22 -33 -25 -33 -13 0
22 -31 96 -40 96 -4 0 -13 -20 -19 -44z"/>
<path d="M3656 3070 c-9 -22 -16 -47 -16 -56 0 -11 -12 -5 -41 19 -38 33 -85
54 -96 43 -13 -13 88 -136 113 -136 7 0 20 -10 28 -21 29 -42 66 3 66 79 0 45
-18 112 -29 112 -5 0 -16 -18 -25 -40z"/>
<path d="M1246 2950 c-22 -70 -12 -154 25 -191 21 -21 39 -25 39 -9 0 6 24 34
53 63 49 48 98 137 76 137 -21 0 -68 -31 -97 -64 l-31 -35 -11 32 c-15 46 -47
86 -54 67z"/>
<path d="M3703 2906 l-26 -53 -30 34 c-32 36 -85 69 -95 58 -12 -12 52 -117
90 -148 21 -16 38 -36 38 -44 0 -38 57 9 71 59 12 45 4 148 -12 148 -5 0 -21
-24 -36 -54z"/>
<path d="M1363 2788 c-18 -13 -40 -38 -50 -55 -16 -31 -33 -43 -33 -25 0 4
-14 27 -32 51 -26 36 -33 40 -40 26 -11 -18 -1 -109 14 -140 16 -30 50 -65 65
-65 7 0 15 11 19 24 3 13 18 33 34 44 37 28 89 162 62 162 -4 0 -22 -10 -39
-22z"/>
<path d="M3580 2793 c0 -33 57 -139 84 -156 14 -10 26 -26 26 -37 0 -28 26
-25 55 6 34 36 60 173 36 188 -5 3 -24 -17 -42 -44 -19 -27 -37 -50 -40 -50
-4 0 -12 14 -19 31 -13 30 -67 79 -88 79 -7 0 -12 -8 -12 -17z"/>
<path d="M1352 2634 c-25 -25 -45 -55 -48 -74 l-7 -32 -44 46 c-24 25 -49 46
-54 46 -16 0 -1 -86 22 -132 37 -72 99 -106 99 -54 0 14 11 37 25 52 29 31 58
120 53 161 l-3 28 -43 -41z"/>
<path d="M3590 2648 c0 -47 30 -132 54 -157 15 -16 26 -39 26 -54 0 -67 89 -1
115 85 17 58 19 98 6 98 -5 0 -27 -20 -50 -45 l-41 -44 -15 37 c-17 39 -49 78
-77 93 -15 8 -18 6 -18 -13z"/>
<path d="M1361 2480 c-16 -23 -32 -59 -36 -81 l-7 -41 -27 25 c-33 31 -80 61
-86 55 -3 -3 2 -27 10 -55 19 -64 86 -143 122 -143 21 0 24 4 21 29 -1 18 4
37 15 49 10 10 22 34 27 53 13 44 13 149 0 149 -5 0 -23 -18 -39 -40z"/>
<path d="M3580 2463 c0 -73 16 -130 40 -145 14 -9 17 -20 13 -45 -5 -30 -3
-33 20 -33 37 0 91 58 116 125 34 90 28 95 -47 36 l-50 -40 -6 38 c-6 38 -58
121 -76 121 -6 0 -10 -26 -10 -57z"/>
<path d="M1417 2353 c-25 -28 -47 -88 -47 -128 l0 -36 -42 29 c-42 29 -88 49
-88 38 0 -12 26 -64 52 -103 33 -49 84 -83 126 -83 24 0 31 -5 34 -25 3 -14 4
-25 2 -25 -2 0 -30 14 -62 30 -93 47 -101 41 -49 -36 45 -66 105 -107 159
-110 34 -1 44 -7 56 -29 13 -26 13 -27 -4 -20 -55 24 -128 46 -143 43 -22 -5
91 -118 141 -141 43 -20 108 -23 108 -4 0 6 9 -1 20 -18 10 -16 18 -30 16 -32
-1 -2 -37 5 -79 14 -42 9 -80 13 -84 10 -11 -11 67 -75 131 -107 60 -30 118
-38 146 -20 13 9 10 15 -15 38 -27 24 -30 33 -27 70 4 43 -34 139 -76 192
l-20 24 -11 -42 c-7 -23 -9 -59 -5 -80 l7 -37 -22 27 c-18 23 -20 30 -9 52 9
20 9 38 -1 79 -13 58 -48 137 -61 137 -13 0 -30 -59 -30 -104 l0 -41 -18 30
c-15 25 -16 32 -5 43 28 28 1 229 -30 220 -7 -3 -21 -31 -31 -63 -17 -50 -20
-55 -28 -36 -5 15 -2 30 10 48 12 20 17 46 16 104 -1 42 -6 84 -11 93 -9 16
-10 15 -26 -1z"/>
<path d="M3545 2340 c-12 -56 -8 -146 9 -178 11 -21 13 -38 7 -54 -8 -22 -9
-21 -16 12 -9 44 -32 90 -45 90 -14 0 -40 -97 -40 -150 0 -25 7 -55 15 -66 12
-19 12 -24 0 -40 -8 -11 -15 -27 -15 -38 0 -16 5 -18 37 -13 21 4 55 19 77 34
37 26 106 114 106 135 0 12 -33 2 -93 -28 l-49 -25 4 23 c2 17 11 24 38 29 64
10 109 49 150 130 36 70 28 73 -53 25 l-57 -35 0 37 c0 41 -28 110 -53 130
-13 11 -16 9 -22 -18z"/>
<path d="M3386 2000 c-27 -60 -37 -128 -24 -165 5 -13 1 -28 -10 -43 -18 -23
-18 -22 -17 35 0 32 -4 67 -8 77 -7 17 -12 14 -42 -28 -42 -60 -69 -138 -61
-177 5 -25 0 -35 -27 -59 -27 -25 -30 -31 -17 -40 28 -18 86 -10 146 20 68 34
143 94 131 106 -4 4 -42 0 -84 -9 -42 -9 -77 -16 -78 -14 -1 1 6 16 16 32 11
17 19 24 19 18 0 -20 68 -16 116 7 53 26 156 133 133 138 -15 3 -89 -20 -141
-43 -17 -7 -17 -5 -3 21 24 47 13 184 -15 184 -4 0 -19 -27 -34 -60z"/>
<path d="M1798 1774 c-24 -23 0 -120 42 -175 l28 -35 -84 4 c-58 3 -84 1 -84
-7 0 -14 73 -60 133 -83 87 -33 202 -16 168 26 -7 8 -28 21 -46 27 -28 10 -31
15 -22 30 17 27 -16 98 -76 164 -29 31 -55 54 -59 49z"/>
<path d="M3153 1747 c-78 -83 -117 -163 -93 -192 9 -10 4 -16 -24 -25 -19 -6
-40 -18 -47 -27 -11 -13 -10 -17 6 -29 44 -33 180 -4 264 55 50 36 40 44 -53
39 l-84 -4 29 36 c32 40 49 87 49 137 0 45 -12 47 -47 10z"/>
<path d="M1950 1643 c0 -63 45 -138 103 -173 l28 -18 -68 -7 c-129 -13 -139
-21 -65 -53 98 -43 240 -46 272 -7 9 11 21 8 68 -21 31 -19 72 -39 91 -45 l34
-12 -69 -21 c-64 -21 -154 -70 -154 -85 0 -3 4 -12 9 -20 7 -11 15 -8 37 14
65 61 208 103 309 89 71 -9 148 -40 199 -79 24 -18 47 -31 50 -28 26 26 -47
80 -147 109 l-64 18 86 43 c67 34 90 41 103 33 58 -34 175 -29 270 12 74 32
63 41 -65 54 l-68 7 28 17 c58 36 103 108 103 165 0 30 -3 31 -43 3 -82 -56
-137 -124 -137 -170 0 -19 -9 -26 -48 -38 l-47 -15 37 38 c35 36 66 102 55
114 -11 10 -139 -62 -184 -104 -55 -50 -56 -79 -3 -76 33 1 34 1 15 -13 -30
-22 -142 -54 -190 -54 -47 0 -160 32 -188 54 -17 13 -15 14 15 13 50 -3 49 26
-4 76 -44 43 -173 115 -184 104 -12 -11 19 -71 58 -113 l37 -40 -49 15 c-32
10 -48 21 -45 29 12 32 -52 117 -129 174 -45 33 -56 35 -56 11z"/>
<path d="M1335 1305 c-11 -78 -23 -135 -29 -135 -6 0 -71 18 -143 39 -73 21
-133 35 -133 32 0 -14 107 -162 174 -240 63 -74 196 -201 210 -201 3 0 6 53 6
118 l0 117 66 77 66 78 -54 62 c-30 35 -74 91 -97 126 -23 34 -43 62 -44 62
-2 0 -12 -61 -22 -135z"/>
<path d="M3596 1375 c-20 -30 -61 -84 -92 -121 -50 -58 -54 -67 -42 -82 8 -9
38 -44 66 -78 l52 -61 0 -116 c0 -64 3 -117 6 -117 15 0 134 112 202 190 72
82 189 246 181 254 -2 2 -62 -14 -134 -35 -71 -21 -135 -39 -141 -39 -6 0 -18
56 -29 130 -10 72 -21 130 -25 130 -4 0 -24 -25 -44 -55z"/>
<path d="M1591 1182 c-142 -169 -142 -147 7 -243 175 -113 373 -195 587 -240
96 -21 136 -24 320 -23 178 0 225 3 310 22 143 32 273 76 400 137 105 50 278
158 303 188 10 11 -12 43 -110 159 l-121 146 -66 -46 c-234 -161 -547 -245
-820 -222 -225 20 -427 92 -617 220 l-71 48 -122 -146z m329 -106 c-1 -6 -13
-34 -28 -63 -21 -40 -30 -50 -42 -43 -12 7 -10 18 14 69 19 39 33 58 42 54 8
-3 14 -10 14 -17z m1196 -1 c19 -15 18 -15 -23 -19 -27 -2 -11 -21 17 -21 27
0 49 -17 50 -37 0 -15 -40 -48 -59 -48 -26 0 -47 26 -26 34 8 3 22 3 30 0 8
-4 15 -1 15 5 0 6 -13 11 -29 11 -28 0 -61 22 -61 40 0 9 48 50 59 50 4 0 16
-7 27 -15z m-1140 -45 c7 -45 21 -52 30 -15 6 23 23 33 36 19 10 -9 -39 -119
-53 -119 -8 0 -18 14 -23 30 -5 17 -11 37 -14 45 -3 10 -9 4 -18 -17 -10 -23
-19 -31 -29 -26 -9 3 -15 8 -13 12 2 4 12 30 22 59 25 66 53 72 62 12z m1022
-38 c13 -39 17 -43 38 -38 37 10 30 -20 -8 -33 -17 -6 -32 -10 -34 -9 -5 6
-44 110 -44 119 0 6 8 9 17 7 9 -2 23 -22 31 -46z m-912 30 c6 -4 15 -22 19
-39 9 -44 21 -49 29 -13 5 30 36 44 36 17 0 -23 -30 -117 -38 -117 -17 1 -30
17 -37 48 -8 40 -21 41 -30 3 -4 -20 -11 -28 -21 -24 -18 7 -18 13 2 79 16 55
20 60 40 46z m827 -49 c11 -38 19 -48 35 -47 37 1 33 -24 -4 -36 -20 -7 -37
-10 -38 -8 -2 1 -11 30 -20 62 -14 48 -15 60 -4 67 7 5 14 9 15 9 1 0 9 -21
16 -47z m-46 -28 c16 -64 16 -75 -2 -75 -13 0 -20 17 -41 103 -6 25 -4 28 12
25 12 -2 22 -19 31 -53z m-78 10 l-21 -35 32 -27 c29 -24 31 -28 14 -34 -13
-5 -27 1 -44 17 l-26 24 1 -27 c0 -36 -23 -41 -31 -6 -12 46 -10 106 4 110 7
3 12 -4 12 -16 0 -29 14 -26 28 4 7 14 20 25 31 25 20 0 20 0 0 -35z m-499 5
c26 -26 25 -51 -1 -84 -55 -69 -154 9 -103 82 20 29 76 30 104 2z m75 -45 l11
-50 18 48 c13 34 24 47 38 47 11 0 18 -4 16 -8 -1 -4 -14 -33 -27 -65 -19 -44
-30 -57 -46 -57 -18 0 -25 10 -38 60 -21 75 -21 82 0 78 11 -2 21 -20 28 -53z
m306 34 l24 -20 -32 5 c-42 7 -43 -11 -2 -26 24 -8 30 -15 27 -36 -2 -14 -10
-29 -19 -35 -21 -13 -65 -2 -73 19 -5 14 -1 15 29 10 44 -9 46 8 3 20 -26 8
-34 16 -36 37 -3 21 2 29 20 36 32 13 33 13 59 -10z m-121 -35 c31 -72 35 -94
16 -94 -9 0 -19 7 -22 15 -4 8 -16 15 -29 15 -13 0 -25 -7 -29 -15 -4 -12 -36
-23 -36 -12 0 7 39 118 45 127 14 22 37 7 55 -36z"/>
<path d="M2214 936 c-11 -29 0 -51 26 -51 21 0 25 5 25 30 0 24 -5 31 -23 33
-13 2 -24 -3 -28 -12z"/>
<path d="M2507 896 c-3 -8 -2 -18 4 -22 16 -9 22 2 11 21 -8 15 -10 16 -15 1z"/>
<path d="M1450 908 l0 -92 45 49 c24 28 44 55 45 61 0 5 -20 24 -45 42 l-45
32 0 -92z"/>
<path d="M3503 967 c-24 -17 -43 -36 -43 -41 1 -6 21 -33 45 -61 l45 -50 0 93
c0 50 -1 92 -2 91 -2 0 -22 -15 -45 -32z"/>
</g>
</svg>
